<mxfile host="65bd71144e">
    <diagram id="3N9gi9qsE6TzbPFI6jHs" name="Page-1">
        <mxGraphModel dx="1054" dy="680" grid="1" gridSize="10" guides="1" tooltips="1" connect="1" arrows="1" fold="1" page="1" pageScale="1" pageWidth="850" pageHeight="1100" math="0" shadow="0">
            <root>
                <mxCell id="0"/>
                <mxCell id="1" parent="0"/>
                <mxCell id="9" style="edgeStyle=none;html=1;entryX=0;entryY=0.5;entryDx=0;entryDy=0;exitX=0.5;exitY=0.5;exitDx=0;exitDy=0;exitPerimeter=0;" edge="1" parent="1" source="2" target="8">
                    <mxGeometry relative="1" as="geometry"/>
                </mxCell>
                <mxCell id="17" style="edgeStyle=none;html=1;exitX=0.5;exitY=0.5;exitDx=0;exitDy=0;exitPerimeter=0;entryX=0;entryY=0.5;entryDx=0;entryDy=0;" edge="1" parent="1" source="2" target="15">
                    <mxGeometry relative="1" as="geometry">
                        <mxPoint x="220" y="280" as="targetPoint"/>
                    </mxGeometry>
                </mxCell>
                <mxCell id="2" value="Student" style="shape=umlActor;html=1;verticalLabelPosition=bottom;verticalAlign=top;align=center;" vertex="1" parent="1">
                    <mxGeometry x="40" y="240" width="40" height="80" as="geometry"/>
                </mxCell>
                <mxCell id="10" style="edgeStyle=none;html=1;entryX=0;entryY=0.5;entryDx=0;entryDy=0;exitX=0.5;exitY=0.5;exitDx=0;exitDy=0;exitPerimeter=0;" edge="1" parent="1" source="4" target="8">
                    <mxGeometry relative="1" as="geometry"/>
                </mxCell>
                <mxCell id="16" style="edgeStyle=none;html=1;entryX=0;entryY=0.5;entryDx=0;entryDy=0;exitX=0.5;exitY=0.5;exitDx=0;exitDy=0;exitPerimeter=0;" edge="1" parent="1" source="4" target="15">
                    <mxGeometry relative="1" as="geometry"/>
                </mxCell>
                <mxCell id="32" style="edgeStyle=none;html=1;entryX=0;entryY=0.5;entryDx=0;entryDy=0;startArrow=none;startFill=0;endArrow=classic;endFill=1;exitX=0.55;exitY=0.592;exitDx=0;exitDy=0;exitPerimeter=0;" edge="1" parent="1" source="4" target="31">
                    <mxGeometry relative="1" as="geometry"/>
                </mxCell>
                <mxCell id="4" value="Lecturer" style="shape=umlActor;html=1;verticalLabelPosition=bottom;verticalAlign=top;align=center;" vertex="1" parent="1">
                    <mxGeometry x="40" y="480" width="40" height="80" as="geometry"/>
                </mxCell>
                <mxCell id="24" style="edgeStyle=none;html=1;entryX=1;entryY=0.5;entryDx=0;entryDy=0;startArrow=none;startFill=0;exitX=0.5;exitY=0.5;exitDx=0;exitDy=0;exitPerimeter=0;" edge="1" parent="1" source="5" target="22">
                    <mxGeometry relative="1" as="geometry"/>
                </mxCell>
                <mxCell id="25" style="edgeStyle=none;html=1;entryX=1;entryY=0.5;entryDx=0;entryDy=0;startArrow=none;startFill=0;exitX=0.5;exitY=0.5;exitDx=0;exitDy=0;exitPerimeter=0;" edge="1" parent="1" source="5" target="23">
                    <mxGeometry relative="1" as="geometry"/>
                </mxCell>
                <mxCell id="27" style="edgeStyle=none;html=1;entryX=1;entryY=0.5;entryDx=0;entryDy=0;startArrow=none;startFill=0;exitX=0.5;exitY=0.5;exitDx=0;exitDy=0;exitPerimeter=0;" edge="1" parent="1" source="5" target="26">
                    <mxGeometry relative="1" as="geometry"/>
                </mxCell>
                <mxCell id="5" value="HR_Administration" style="shape=umlActor;html=1;verticalLabelPosition=bottom;verticalAlign=top;align=center;" vertex="1" parent="1">
                    <mxGeometry x="760" y="280" width="40" height="80" as="geometry"/>
                </mxCell>
                <mxCell id="6" value="" style="swimlane;startSize=0;fillColor=#1BA1E2;fontColor=#ffffff;strokeColor=#006EAF;" vertex="1" parent="1">
                    <mxGeometry x="120" y="80" width="600" height="800" as="geometry"/>
                </mxCell>
                <mxCell id="8" value="Register Fingerprint" style="ellipse;whiteSpace=wrap;html=1;" vertex="1" parent="6">
                    <mxGeometry x="100" y="50" width="140" height="70" as="geometry"/>
                </mxCell>
                <mxCell id="15" value="Scanning Fingerprint" style="ellipse;whiteSpace=wrap;html=1;" vertex="1" parent="6">
                    <mxGeometry x="100" y="160" width="140" height="70" as="geometry"/>
                </mxCell>
                <mxCell id="18" value="Fingerprint Detection&lt;br&gt;Process" style="ellipse;whiteSpace=wrap;html=1;" vertex="1" parent="6">
                    <mxGeometry x="200" y="280" width="140" height="70" as="geometry"/>
                </mxCell>
                <mxCell id="22" value="Login" style="ellipse;whiteSpace=wrap;html=1;" vertex="1" parent="6">
                    <mxGeometry x="380" y="50" width="140" height="70" as="geometry"/>
                </mxCell>
                <mxCell id="23" value="Generate Report" style="ellipse;whiteSpace=wrap;html=1;" vertex="1" parent="6">
                    <mxGeometry x="380" y="160" width="140" height="70" as="geometry"/>
                </mxCell>
                <mxCell id="26" value="View Report" style="ellipse;whiteSpace=wrap;html=1;" vertex="1" parent="6">
                    <mxGeometry x="380" y="280" width="140" height="70" as="geometry"/>
                </mxCell>
                <mxCell id="28" value="Mark as Attended" style="ellipse;whiteSpace=wrap;html=1;" vertex="1" parent="6">
                    <mxGeometry x="80" y="400" width="140" height="70" as="geometry"/>
                </mxCell>
                <mxCell id="31" value="Download Attendance&lt;br&gt;File" style="ellipse;whiteSpace=wrap;html=1;" vertex="1" parent="6">
                    <mxGeometry x="100" y="500" width="140" height="70" as="geometry"/>
                </mxCell>
                <mxCell id="33" value="&amp;lt;&amp;lt;include&amp;gt;&amp;gt;" style="edgeStyle=none;html=1;endArrow=open;verticalAlign=bottom;dashed=1;labelBackgroundColor=none;exitX=0.5;exitY=1;exitDx=0;exitDy=0;entryX=0.5;entryY=0;entryDx=0;entryDy=0;" edge="1" parent="6" source="15" target="18">
                    <mxGeometry width="160" relative="1" as="geometry">
                        <mxPoint x="30" y="310" as="sourcePoint"/>
                        <mxPoint x="190" y="310" as="targetPoint"/>
                    </mxGeometry>
                </mxCell>
                <mxCell id="34" value="&amp;lt;&amp;lt;extend&amp;gt;&amp;gt;" style="edgeStyle=none;html=1;startArrow=open;endArrow=none;startSize=12;verticalAlign=bottom;dashed=1;labelBackgroundColor=none;entryX=0.5;entryY=1;entryDx=0;entryDy=0;exitX=0.5;exitY=0;exitDx=0;exitDy=0;" edge="1" parent="6" source="28" target="18">
                    <mxGeometry width="160" relative="1" as="geometry">
                        <mxPoint x="230" y="400" as="sourcePoint"/>
                        <mxPoint x="390" y="400" as="targetPoint"/>
                    </mxGeometry>
                </mxCell>
            </root>
        </mxGraphModel>
    </diagram>
</mxfile>